<svg version="1.2" xmlns="http://www.w3.org/2000/svg" viewBox="0 0 1868 1680" width="1868" height="1680">
	<title>arbovert-logo-svg</title>
	<style>
		.s0 { fill: #b6d055 } 
		.s1 { fill: #3d9690 } 
		.s2 { fill: #023026 } 
	</style>
	<g id="Vrstva_x0020_1">
		<g id="_2802977242272">
			<path id="Layer" fill-rule="evenodd" class="s0" d="m876.6 1049.4c-12.6-5.7-17-21-23.3-32-6.8-11.7-12.2-20.6-18.8-32.3-12.3-22-24.8-44.2-37.1-64.8-26.6-44.8-49.1-85.9-76-131.4l-267.3-461.3c-14.7-24.9 7-44.9 20.2-68.5 25.1-44.8 49.8-87.5 75.9-131.7 13.6-23.1 64.5-117.6 75.4-127.4 13.3 17 27.3 46 38.7 65.9 12.8 22.3 24.6 42.9 37.5 64.5l527.9 919.1-353.1-0.1z"/>
			<path id="Layer" fill-rule="evenodd" class="s0" d="m243.4 621.9l359.8 0.6c-39.4 73-81.7 141.2-123.3 214.6-21 37.1-41.1 71.8-62.3 109-8.8 15.4-53.8 100.7-64.8 103.4l-352.8-0.2c8.3-25.7 225.8-384.1 243.4-427.4z"/>
		</g>
		<g id="_2802977244096">
			<path id="Layer" fill-rule="evenodd" class="s1" d="m1509.5 622l356.2-0.1-532.4 927c-13 21.7-25 42.5-37.8 65-11.5 20-25.7 49.3-39.1 66.4-10.9-9.9-62.2-105.2-76-128.5-26.3-44.5-51.2-87.6-76.5-132.8-13.4-23.8-35.3-43.9-20.4-69.1l269.5-465.2c27.2-45.9 49.9-87.3 76.8-132.5 12.3-20.8 24.9-43.2 37.4-65.4 6.6-11.7 12.1-20.7 18.8-32.5 6.4-11.1 10.9-26.5 23.5-32.3z"/>
			<path id="Layer" fill-rule="evenodd" class="s1" d="m625.5 622.1l355.8-0.1c11.1 2.6 56.5 88.7 65.4 104.2 21.3 37.5 41.7 72.5 62.8 109.9 41.9 74 84.7 142.9 124.4 216.5l-362.9 0.5c-17.8-43.6-237.1-405.1-245.5-431z"/>
		</g>
		<path id="Layer" fill-rule="evenodd" class="s2" d="m2264.7 946.1h-187.4l-35.8 86.5h-95.7l179.9-403.7h92.3l180.5 403.7h-98zm-29.4-71l-64.1-154.5-64 154.5z"/>
		<path id="1" fill-rule="evenodd" class="s2" d="m2697.9 1032.6l-77.9-112.5h-85.9v112.5h-93.5v-403.7h174.8q53.6 0 93.1 17.8 39.5 17.9 60.9 50.8 21.3 32.9 21.3 77.8 0 45-21.6 77.6-21.6 32.6-61.4 49.9l90.5 129.8zm-1.7-257.3q0-34-21.9-52.1-22-18.2-64.1-18.2h-76.1v140.7h76.1q42.1 0 64.1-18.4 21.9-18.5 21.9-51.9z"/>
		<path id="2" fill-rule="evenodd" class="s2" d="m3161 822.6q0 0 0 0 0 0 0 0zm54.2 36.7q19.6 25.6 19.6 63.1 0 53.1-41.2 81.6-41.3 28.6-120.3 28.6h-208.8v-403.7h197.3q73.8 0 113.3 28.2 39.5 28.3 39.5 76.7 0 29.4-14.1 52.5-14.1 23.1-39.5 36.3 34.6 11 54.2 36.7zm-257.8-160.1v95.2h92.9q34.6 0 52.4-12.1 17.9-12.1 17.9-35.8 0-23.6-17.9-35.5-17.8-11.8-52.4-11.8c0 0-92.9 0-92.9 0zm109 263q36.9 0 55.7-12.1 18.7-12.1 18.7-37.5 0-50.2-74.4-50.2h-109v99.8z"/>
		<path id="3" fill-rule="evenodd" class="s2" d="m3501.3 1039.5q-62.9 0-113.4-27.1-50.4-27.1-79-74.7-28.5-47.6-28.5-107 0-59.4 28.5-107 28.6-47.6 79-74.7 50.5-27.1 113.4-27.1 62.8 0 113 27.1 50.2 27.1 79 74.7 28.9 47.6 28.9 107 0 59.4-28.9 107-28.8 47.6-79 74.7-50.2 27.1-113 27.1zm0-79.6q35.7 0 64.6-16.4 28.8-16.5 45.2-45.9 16.5-29.4 16.5-66.9 0-37.5-16.5-66.9-16.4-29.4-45.2-45.8-28.9-16.5-64.6-16.5-35.8 0-64.6 16.5-28.9 16.4-45.3 45.8-16.4 29.4-16.4 66.9 0 37.5 16.4 66.9 16.4 29.4 45.3 45.9 28.8 16.4 64.6 16.4z"/>
		<path id="4" class="s2" d="m4146.1 628.9l-178.8 403.7h-42.1l-178.8-403.7h46.1l154.6 350.6 155.7-350.6z"/>
		<path id="5" class="s2" d="m4489.8 995.7v36.9h-285.5v-403.7h276.9v36.9h-234.2v143.6h208.8v36.3h-208.8v150z"/>
		<path id="6" fill-rule="evenodd" class="s2" d="m4865.8 1032.6l-92.2-129.8q-15.6 1.7-32.3 1.7h-108.5v128.1h-42.6v-403.7h151.1q77.3 0 121.1 36.9 43.8 36.9 43.8 101.5 0 47.3-23.9 79.9-23.9 32.5-68.4 47l98.7 138.4zm-125.8-164.4q60 0 91.7-26.5 31.8-26.6 31.8-74.4 0-49-31.8-75.3-31.7-26.2-91.7-26.2h-107.2v202.4z"/>
		<path id="7" class="s2" d="m5079.8 665.8h-141.9v-36.9h326.5v36.9h-141.9v366.8h-42.7z"/>
	</g>
</svg>