<?xml version="1.0" encoding="UTF-8"?>
<!DOCTYPE svg PUBLIC "-//W3C//DTD SVG 1.1//EN" "http://www.w3.org/Graphics/SVG/1.1/DTD/svg11.dtd">
<!-- Creator: CorelDRAW 2019 (64-Bit) -->
<svg xmlns="http://www.w3.org/2000/svg" xml:space="preserve" width="212.22mm" height="67.7381mm" version="1.1" style="shape-rendering:geometricPrecision; text-rendering:geometricPrecision; image-rendering:optimizeQuality; fill-rule:evenodd; clip-rule:evenodd"
viewBox="0 0 21057.52 6721.32"
 xmlns:xlink="http://www.w3.org/1999/xlink"
 xmlns:xodm="http://www.corel.com/coreldraw/odm/2003">
 <defs>
  <style type="text/css">
   <![CDATA[
    .fil1 {fill:#3D9690}
    .fil0 {fill:#B6D055}
    .fil2 {fill:#023026;fill-rule:nonzero}
   ]]>
  </style>
 </defs>
 <g id="Vrstva_x0020_1">
  <metadata id="CorelCorpID_0Corel-Layer"/>
  <g id="_2802977242272">
   <path class="fil0" d="M3506.24 4197.72l1412.75 0.13 -2111.94 -3676.38c-51.33,-86.4 -98.8,-168.72 -149.77,-257.88 -45.51,-79.62 -101.86,-195.64 -154.89,-263.59 -43.53,39.19 -247.03,417.29 -301.6,509.78 -104.23,176.62 -203.21,347.32 -303.62,526.59 -52.96,94.55 -139.71,174.24 -80.85,274.12l1069.1 1845.15c107.64,181.94 197.85,346.43 304.35,525.52 49.17,82.64 98.92,171.32 148.38,259.31 26.27,46.74 47.98,82.33 74.91,129.16 25.32,44.05 42.96,105.04 93.18,128.1z"/>
   <path class="fil0" d="M-0 4197.25l1411.25 0.55c44.06,-10.61 223.86,-351.82 259.08,-413.56 84.76,-148.59 165.42,-287.52 249.4,-435.88 166.16,-293.51 335.61,-566.5 493.24,-858.43l-1439.56 -2.18c-70.25,172.85 -940.24,1606.65 -973.41,1709.5z"/>
  </g>
  <g id="_2802977244096">
   <path class="fil1" d="M6038.16 2487.91l1424.76 -0.14 -2129.9 3707.65c-51.77,87.13 -99.64,170.16 -151.04,260.07 -45.91,80.29 -102.74,197.31 -156.21,265.83 -43.9,-39.52 -249.13,-420.84 -304.17,-514.12 -105.1,-178.13 -204.94,-350.26 -306.2,-531.06 -53.4,-95.36 -140.89,-175.73 -81.53,-276.45l1078.19 -1860.84c108.55,-183.49 199.52,-349.39 306.94,-529.98 49.58,-83.35 99.76,-172.78 149.64,-261.51 26.49,-47.14 48.38,-83.04 75.54,-130.27 25.54,-44.41 43.33,-105.93 93.98,-129.18z"/>
   <path class="fil1" d="M2502.1 2488.38l1423.26 -0.56c44.43,10.7 225.77,354.82 261.28,417.08 85.48,149.86 166.83,289.98 251.53,439.58 167.57,296.01 338.46,571.32 497.43,865.73l-1451.79 2.2c-70.86,-174.32 -948.24,-1620.32 -981.69,-1724.04z"/>
  </g>
  <path class="fil2" d="M9058.87 3784.27l-749.77 0 -143.03 346.05 -382.97 0 719.79 -1614.89 369.12 0 722.08 1614.89 -392.19 0 -143.03 -346.05zm-117.65 -283.76l-256.08 -618.27 -256.07 618.27 512.15 0z"/>
  <path id="1" class="fil2" d="M10791.42 4130.32l-311.45 -449.87 -18.46 0 -325.28 0 0 449.87 -373.73 0 0 -1614.89 699.01 0c143.03,0 267.22,23.83 372.58,71.51 105.35,47.68 186.48,115.35 243.39,203.01 56.91,87.67 85.35,191.48 85.35,311.45 0,119.96 -28.83,223.4 -86.51,310.29 -57.67,86.9 -139.57,153.41 -245.69,199.55l362.2 519.08 -401.42 0zm-6.93 -1028.92c0,-90.74 -29.22,-160.34 -87.67,-208.78 -58.44,-48.45 -143.8,-72.67 -256.07,-72.67l-304.52 0 0 562.9 304.52 0c112.27,0 197.63,-24.61 256.07,-73.82 58.44,-49.22 87.67,-118.43 87.67,-207.63z"/>
  <path id="2" class="fil2" d="M12643.93 3290.57c92.28,29.22 164.56,78.05 216.86,146.5 52.29,68.44 78.44,152.64 78.44,252.61 0,141.5 -54.99,250.32 -164.95,326.44 -109.97,76.14 -270.3,114.2 -481,114.2l-835.13 0 0 -1614.89 788.99 0c196.86,0 347.96,37.68 453.32,113.04 105.35,75.36 158.03,177.64 158.03,306.83 0,78.44 -18.84,148.41 -56.52,209.93 -37.69,61.52 -90.35,109.97 -158.03,145.35zm-814.37 -493.69l0 380.65 371.43 0c92.28,0 162.25,-16.14 209.93,-48.44 47.68,-32.3 71.52,-79.98 71.52,-143.03 0,-63.06 -23.84,-110.35 -71.52,-141.88 -47.68,-31.52 -117.65,-47.29 -209.93,-47.29l-371.43 0zm436.03 1051.99c98.43,0 172.63,-16.15 222.62,-48.45 49.98,-32.3 74.97,-82.28 74.97,-149.95 0,-133.81 -99.2,-200.71 -297.6,-200.71l-436.03 0 0 399.11 436.03 0z"/>
  <path id="3" class="fil2" d="M14005.06 4158c-167.64,0 -318.75,-36.15 -453.32,-108.43 -134.58,-72.29 -239.93,-171.87 -316.06,-298.75 -76.13,-126.89 -114.19,-269.54 -114.19,-427.95 0,-158.41 38.06,-301.06 114.19,-427.95 76.14,-126.88 181.48,-226.47 316.06,-298.76 134.57,-72.29 285.68,-108.42 453.32,-108.42 167.64,0 318.36,36.14 452.17,108.42 133.81,72.29 239.16,171.88 316.06,298.76 76.9,126.89 115.35,269.54 115.35,427.95 0,158.41 -38.45,301.06 -115.35,427.95 -76.9,126.88 -182.26,226.46 -316.06,298.75 -133.81,72.29 -284.53,108.43 -452.17,108.43zm0 -318.36c95.36,0 181.48,-21.92 258.38,-65.75 76.9,-43.84 137.27,-104.97 181.1,-183.41 43.84,-78.44 65.76,-167.64 65.76,-267.61 0,-99.97 -21.92,-189.17 -65.76,-267.61 -43.83,-78.44 -104.2,-139.57 -181.1,-183.41 -76.9,-43.83 -163.03,-65.75 -258.38,-65.75 -95.36,0 -181.48,21.92 -258.38,65.75 -76.9,43.84 -137.27,104.97 -181.1,183.41 -43.84,78.44 -65.75,167.64 -65.75,267.61 0,99.97 21.91,189.17 65.75,267.61 43.83,78.44 104.2,139.57 181.1,183.41 76.9,43.83 163.03,65.75 258.38,65.75z"/>
  <polygon id="4" class="fil2" points="16584.27,2515.43 15869.1,4130.32 15700.69,4130.32 14985.53,2515.43 15170.09,2515.43 15788.36,3918.07 16411.25,2515.43 "/>
  <polygon id="5" class="fil2" points="17959.24,3982.67 17959.24,4130.32 16817.28,4130.32 16817.28,2515.43 17924.63,2515.43 17924.63,2663.07 16987.99,2663.07 16987.99,3237.51 17823.12,3237.51 17823.12,3382.85 16987.99,3382.85 16987.99,3982.67 "/>
  <path id="6" class="fil2" d="M19463.39 4130.32l-369.12 -519.08c-41.53,4.61 -84.59,6.93 -129.19,6.93l-433.71 0 0 512.15 -170.72 0 0 -1614.89 604.43 0c206.09,0 367.58,49.22 484.47,147.65 116.89,98.43 175.33,233.77 175.33,406.03 0,126.12 -31.91,232.62 -95.74,319.51 -63.82,86.9 -154.95,149.57 -273.38,188.02l394.5 553.68 -186.87 0zm-502.92 -657.5c159.95,0 282.23,-35.37 366.82,-106.12 84.59,-70.75 126.88,-169.94 126.88,-297.6 0,-130.73 -42.29,-231.09 -126.88,-301.06 -84.59,-69.98 -206.86,-104.97 -366.82,-104.97l-429.1 0 0 809.75 429.1 0z"/>
  <polygon id="7" class="fil2" points="20319.29,2663.07 19751.77,2663.07 19751.77,2515.43 21057.52,2515.43 21057.52,2663.07 20490.01,2663.07 20490.01,4130.32 20319.29,4130.32 "/>
 </g>
</svg>
