<?xml version="1.0" encoding="utf-8"?>
<!-- Generator: Adobe Illustrator 24.3.0, SVG Export Plug-In . SVG Version: 6.00 Build 0)  -->
<svg version="1.1" id="Vrstva_1" xmlns="http://www.w3.org/2000/svg" x="0px" y="0px"
	 viewBox="270 240 305 120" style="enable-background:new 0 0 841.89 595.28;" xml:space="preserve">
<style type="text/css">
	.st0{fill:#007C58;}
</style>
<g>
	<g>
		<path class="st0" d="M413.29,307.31h8.8c0.3,4.61,4.01,7.3,9.46,7.3c5.15,0,8.56-2.1,8.56-5.33c0-2.33-1.38-3.83-5.27-4.67
			l-10.05-2.21c-6.4-1.44-10.47-5.09-10.47-11.49c0-7.54,6.82-12.39,16.16-12.39c9.64,0,17.3,4.25,17.3,13.23h-8.8
			c-0.36-4.43-3.65-6.46-8.44-6.46c-4.67,0-7.72,2.16-7.72,5.03c0,2.27,1.38,3.83,5.21,4.67l10.05,2.21
			c6.46,1.37,10.53,5.09,10.53,11.49c0,7.72-6.64,12.81-17.3,12.81C420.06,321.5,413.53,316.23,413.29,307.31"/>
		<polygon class="st0" points="486.36,279.24 486.36,285.83 463.92,313.3 487.49,313.3 487.49,320.78 452.78,320.78 452.78,314.2 
			475.29,286.72 454.28,286.72 454.28,279.24 		"/>
		<polygon class="st0" points="493.82,279.24 502.37,279.24 502.37,298.69 520.69,279.24 531.28,279.24 515.06,296.6 531.22,320.78 
			520.93,320.78 508.6,302.17 502.37,308.69 502.37,320.78 493.82,320.78 		"/>
		<polygon class="st0" points="532.91,279.24 569,279.24 569,286.9 555.24,286.9 555.24,320.78 546.68,320.78 546.68,286.9 
			532.91,286.9 		"/>
	</g>
	<path class="st0" d="M272,300.02l53.96,53.96v-29.71c-4.64-0.95-9.06-3.21-12.66-6.81c-9.77-9.77-9.77-25.6,0-35.37
		c9.77-9.77,25.6-9.77,35.37,0c9.77,9.77,9.77,25.6,0,35.37c-3.6,3.6-8.02,5.86-12.66,6.81v29.71l53.96-53.96l-58.99-58.99
		L272,300.02z"/>
</g>
</svg>
